<svg width="370.11666258578134" height="133.4907205391089" viewBox="0 0 370.11666258578134 133.4907205391089" class="css-1j8o68f"><defs id="SvgjsDefs2067"><linearGradient id="SvgjsLinearGradient2072"><stop id="SvgjsStop2073" stop-color="#006838" offset="0"></stop><stop id="SvgjsStop2074" stop-color="#96cf24" offset="1"></stop></linearGradient></defs><g id="SvgjsG2068" featurekey="HKaMnE-0" transform="matrix(2.6142158063005505,0,0,2.6142158063005505,-12.299510644103854,15.543136774797798)" fill="url(#SvgjsLinearGradient2072)"><title xmlns="http://www.w3.org/2000/svg">song lyrics</title><g xmlns="http://www.w3.org/2000/svg" data-name="Layer 2"><path d="M34.44,24l-9.26,1.32A1.39,1.39,0,0,0,24,26.63v7.43l-2.6.52A1.75,1.75,0,0,0,20,36.29V38a1.74,1.74,0,0,0,1.73,1.73,2.07,2.07,0,0,0,.35,0l2.52-.51h0a1.74,1.74,0,0,0,1.4-1.7V27.18L34,26v8l-2.6.52A1.75,1.75,0,0,0,30,36.29V38a1.74,1.74,0,0,0,1.73,1.73,2.07,2.07,0,0,0,.35,0l2.52-.51h0a1.74,1.74,0,0,0,1.4-1.7V25.31a1.37,1.37,0,0,0-.47-1A1.39,1.39,0,0,0,34.44,24ZM24,37.26l-2,.4V36.5l2-.4Zm10,0-2,.4V36.5l2-.4Z"></path><path d="M37,4H11A4,4,0,0,0,7,8V40a4,4,0,0,0,4,4H37a4,4,0,0,0,4-4V8A4,4,0,0,0,37,4Zm2,36a2,2,0,0,1-2,2H11a2,2,0,0,1-2-2V8a2,2,0,0,1,2-2H37a2,2,0,0,1,2,2Z"></path><path d="M35,10H13a1,1,0,0,0,0,2H35a1,1,0,0,0,0-2Z"></path><path d="M35,18H13a1,1,0,0,0,0,2H35a1,1,0,0,0,0-2Z"></path><path d="M22,27a1,1,0,0,0-1-1H13a1,1,0,0,0,0,2h8A1,1,0,0,0,22,27Z"></path></g></g><g id="SvgjsG2069" featurekey="J3GnXt-0" transform="matrix(5.195317773695776,0,0,5.195317773695776,101.20702333945634,4.646848669807678)" fill="#ffffff"><path d="M3.3 4.880000000000001 l0 15.12 l-1.8 0 l0 -15.12 l1.8 0 z M7.1 10.52 l2.82 7.4 l0.04 0 l2.68 -7.4 l1.94 0 l-4.48 11.48 c-0.41334 1.1067 -0.86668 1.85 -1.36 2.23 s-1.1267 0.57 -1.9 0.57 c-0.65334 0 -1.1867 -0.08666 -1.6 -0.26 l0.22 -1.62 c0.37334 0.13334 0.73334 0.2 1.08 0.2 c0.56 0 0.96334 -0.13666 1.21 -0.41 s0.46332 -0.66334 0.64998 -1.17 l0.56 -1.48 l-3.94 -9.54 l2.08 0 z M20.84 10.28 c0.33334 0 0.6 0.04 0.8 0.12 l-0.08 1.94 c-0.34666 -0.09334 -0.64666 -0.14 -0.9 -0.14 c-1.7733 0 -2.6734 0.98666 -2.7 2.96 l0 4.84 l-1.8 0 l0 -9.48 l1.8 0 l0 1.46 l0.04 0 c0.24 -0.50666 0.62666 -0.91666 1.16 -1.23 s1.0933 -0.47 1.68 -0.47 z M24.6 5.800000000000001 c0.36 0 0.67002 0.13002 0.93002 0.39002 s0.39 0.57 0.39 0.93 c0 0.37334 -0.13334 0.68668 -0.4 0.94002 s-0.57332 0.38 -0.91998 0.38 c-0.37334 0 -0.68668 -0.12666 -0.94002 -0.38 s-0.38 -0.56668 -0.38 -0.94002 s0.13334 -0.68668 0.4 -0.94002 s0.57332 -0.38 0.91998 -0.38 z M25.500000000000004 10.52 l0 9.48 l-1.8 0 l0 -9.48 l1.8 0 z M32.86000000000001 10.3 c1.5067 0 2.72 0.5 3.64 1.5 l-1.36 1.24 c-0.65334 -0.70666 -1.44 -1.06 -2.36 -1.06 c-0.88 0 -1.5933 0.31334 -2.14 0.94 s-0.82 1.4333 -0.82 2.42 c0 0.93334 0.28666 1.7 0.86 2.3 s1.3067 0.90666 2.2 0.92 c0.94666 0 1.7133 -0.35334 2.3 -1.06 l1.28 1.28 c-0.85334 0.97334 -2.0534 1.46 -3.6 1.46 c-1.4533 0 -2.6366 -0.45334 -3.55 -1.36 s-1.3833 -2.1 -1.41 -3.58 c0.01334 -1.5067 0.48334 -2.7134 1.41 -3.62 s2.11 -1.3667 3.55 -1.38 z M39.94 4.880000000000001 l0 15.12 l-1.8 0 l0 -15.12 l1.8 0 z M47.14 10.28 c1.4533 0 2.5834 0.45664 3.39 1.37 s1.2167 2.17 1.23 3.77 l0 0.5 l-7.6 0 c0 0.77334 0.31 1.4233 0.93 1.95 s1.3767 0.79666 2.27 0.81 c0.98666 0 1.8533 -0.47334 2.6 -1.42 l1.36 1.04 c-1.0133 1.2933 -2.4134 1.94 -4.2 1.94 c-1.4533 0 -2.6234 -0.46334 -3.51 -1.39 s-1.3433 -2.1234 -1.37 -3.59 c0 -1.4133 0.45666 -2.59 1.37 -3.53 s2.09 -1.4233 3.53 -1.45 z M49.839999999999996 14.48 c-0.02666 -0.89334 -0.28 -1.5767 -0.76 -2.05 s-1.14 -0.71 -1.98 -0.71 c-0.56 0 -1.0633 0.13666 -1.51 0.41 s-0.79666 0.62668 -1.05 1.06 s-0.38 0.86334 -0.38 1.29 l5.68 0 z"></path></g></svg>